<svg version="1.1" id="Layer_1" xmlns="http://www.w3.org/2000/svg" xmlns:xlink="http://www.w3.org/1999/xlink" x="0px" y="0px"
	 width="100%" viewBox="0 0 1119 313" enable-background="new 0 0 1119 313" xml:space="preserve">
<path fill="#FFFFFF00" opacity="1.000000" stroke="none" 
	d="
M736.000000,314.000000 
	C490.666656,314.000000 245.833328,314.000000 1.000000,314.000000 
	C1.000000,209.666672 1.000000,105.333336 1.000000,1.000000 
	C374.000000,1.000000 747.000000,1.000000 1120.000000,1.000000 
	C1120.000000,105.333336 1120.000000,209.666672 1120.000000,314.000000 
	C992.166687,314.000000 864.333313,314.000000 736.000000,314.000000 
M543.395386,195.316010 
	C537.367859,200.203674 531.617126,205.498886 525.221008,209.843918 
	C520.507874,213.045639 517.530518,211.774506 513.845398,206.529190 
	C514.974426,205.469177 516.047546,204.220978 517.345947,203.285568 
	C522.296021,199.719452 527.507935,196.492096 532.274536,192.701248 
	C541.974670,184.986740 549.085693,175.875763 548.034973,162.376984 
	C547.301025,152.947357 542.354858,148.236694 534.182556,150.212891 
	C531.823059,150.783493 529.338562,151.734406 527.450195,153.203537 
	C518.611450,160.079819 509.969391,167.208725 501.231171,174.215042 
	C500.231140,175.016891 499.068939,175.616470 497.981934,176.309845 
	C497.872437,174.495941 498.304565,173.413971 499.001373,172.543976 
	C512.753723,155.374100 526.699097,138.355377 540.223999,121.008690 
	C544.849854,115.075691 549.041931,108.626167 552.317261,101.871986 
	C555.213074,95.900429 551.885681,91.600098 545.274414,92.147934 
	C541.838318,92.432663 537.903015,93.513916 535.294434,95.607468 
	C529.006226,100.654175 522.988953,106.162193 517.536438,112.102852 
	C501.616577,129.448029 486.829803,147.777466 474.938171,168.125183 
	C470.266724,176.118530 467.738312,185.364319 463.975098,194.574310 
	C463.649445,195.061951 463.323792,195.549591 462.396973,196.333740 
	C457.186584,199.828156 452.107605,203.543747 446.722076,206.743378 
	C442.782318,209.084061 438.553589,208.893311 435.563080,204.973831 
	C432.390625,200.815765 435.417633,197.499390 437.968689,194.577332 
	C441.139832,190.945053 445.251495,188.040146 447.983734,184.139404 
	C452.582825,177.573349 456.867676,170.693161 460.406158,163.512177 
	C462.658661,158.941010 459.531555,153.582077 455.161133,153.127594 
	C449.838776,152.574112 444.354706,152.567307 440.114990,156.502426 
	C435.050537,161.203033 429.910614,165.922989 425.516510,171.225525 
	C414.101074,185.000839 409.917267,200.345444 416.035645,217.927200 
	C421.365479,233.242996 433.265594,237.744873 446.695190,228.670547 
	C451.982819,225.097702 456.703888,220.686401 461.740936,216.610046 
	C461.933960,217.842697 461.953217,219.168427 462.364136,220.358978 
	C463.501282,223.653580 463.329315,227.954636 467.875183,228.938721 
	C472.874237,230.020874 475.777649,227.234390 478.404541,223.311249 
	C481.320099,218.957047 484.866272,215.025116 488.280090,210.730423 
	C491.713318,216.012451 494.694397,220.925110 497.998138,225.610245 
	C503.935699,234.030411 514.014160,236.445450 522.912354,231.280960 
	C526.727417,229.066711 530.093201,225.982101 533.382751,222.985153 
	C536.849182,219.827072 539.980957,216.301666 542.318420,213.902237 
	C546.328918,219.832123 549.050598,226.542435 553.969910,230.565445 
	C563.916077,238.699432 575.351624,235.971817 585.028687,229.852219 
	C593.318665,224.609833 600.080200,216.997253 607.761353,210.731628 
	C614.775146,205.010406 614.779114,197.720917 613.591125,189.775330 
	C607.398438,194.661407 601.588745,199.560837 595.447754,204.002075 
	C589.270264,208.469727 582.779846,213.072342 574.655273,211.785446 
	C572.213135,211.398636 569.449097,208.598465 568.211365,206.194061 
	C566.708130,203.273956 568.506348,200.938248 571.760254,199.403870 
	C578.452637,196.248047 585.064209,192.854538 591.429260,189.086182 
	C600.978882,183.432449 609.166870,176.455154 612.392456,165.115768 
	C615.106934,155.573105 609.750183,148.081375 599.809509,148.105042 
	C588.332886,148.132370 578.803772,153.270111 570.078796,160.114685 
	C559.174011,168.669296 549.141541,177.966721 545.044495,192.640823 
	C544.694214,193.437714 544.343933,194.234604 543.395386,195.316010 
M261.494232,257.018585 
	C244.036865,239.195938 226.579514,221.373276 209.266434,203.697922 
	C232.497879,166.505463 232.992172,129.128876 211.234802,90.869568 
	C214.320236,87.904083 217.428864,84.632965 220.876007,81.769348 
	C221.963394,80.866013 224.111694,80.468147 225.511414,80.837013 
	C234.934280,83.320160 242.137054,80.713081 246.720016,72.115341 
	C248.216156,69.308548 249.913162,68.931290 252.551147,68.969833 
	C259.643555,69.073456 266.738464,69.005234 273.740387,69.005234 
	C273.740387,65.983284 273.740387,63.710621 273.740387,60.994781 
	C266.690552,60.994781 259.892731,60.848351 253.105728,61.055962 
	C249.662888,61.161278 247.584854,60.527210 245.756882,56.984093 
	C241.881821,49.473064 232.794785,46.931046 224.633682,50.217453 
	C218.625290,52.636986 213.029037,61.741879 215.320740,67.680931 
	C217.391342,73.047043 215.511810,75.792084 211.957870,78.950661 
	C210.150772,80.556732 208.963211,82.859886 207.948837,84.233963 
	C199.699402,76.805832 192.990952,69.839928 185.372284,64.077415 
	C161.859558,46.293171 134.874496,41.342930 106.479034,46.330654 
	C81.736862,50.676666 61.462624,63.723106 45.854141,83.643799 
	C26.527813,108.309494 20.678675,136.273514 26.619032,166.616592 
	C31.328579,190.672745 43.788109,210.500687 63.202259,225.487488 
	C80.446861,238.799500 100.003517,246.428223 122.064316,247.031357 
	C142.590454,247.592545 161.688583,242.911209 179.084213,231.893723 
	C182.412720,229.785629 184.599625,229.802856 187.552582,232.867767 
	C198.533493,244.265045 209.801605,255.388412 221.073349,266.501556 
	C227.583359,272.919983 234.240616,279.193604 240.957672,285.395813 
	C245.370941,289.470825 254.125870,290.306549 259.548340,287.765961 
	C270.162750,282.792816 273.646210,266.235687 261.494232,257.018585 
M345.941010,86.238129 
	C345.157745,86.503334 344.392517,86.857376 343.588562,87.020813 
	C320.824799,91.648453 299.408142,99.925613 278.601196,110.162651 
	C264.609802,117.046417 259.344238,128.580460 259.301483,143.123322 
	C259.277985,151.137619 265.099670,155.175751 272.452057,151.945755 
	C282.860870,147.373047 292.911194,141.936462 302.897034,136.471313 
	C307.110077,134.165573 306.925110,132.153534 302.931549,128.154373 
	C310.406342,125.036880 317.542053,121.495796 325.037476,119.063118 
	C337.207031,115.113434 349.571106,111.730957 361.960266,108.523064 
	C363.925690,108.014168 367.245575,109.030731 368.462708,110.535950 
	C369.398895,111.693764 368.400055,114.888672 367.561584,116.883446 
	C366.620026,119.123459 365.055969,121.169739 363.478210,123.063232 
	C354.468170,133.876282 345.168488,144.454803 336.378326,155.441879 
	C330.359192,162.965286 324.156494,169.592087 313.819366,170.767685 
	C308.945312,171.321976 304.162598,173.874161 299.376740,173.769760 
	C288.114319,173.524063 280.207306,180.032745 279.996277,190.943954 
	C279.863708,197.796555 283.388031,201.481766 290.425629,202.038986 
	C292.005219,202.164062 293.548889,202.743301 295.486359,203.202972 
	C291.635468,209.116669 287.936951,214.023712 285.080780,219.379913 
	C281.580597,225.943863 283.196320,232.455338 289.045135,235.124390 
	C293.520325,237.166626 297.001160,237.197189 302.001923,229.543488 
	C307.688690,220.839859 314.018829,212.548019 319.510803,203.729355 
	C322.191650,199.424667 325.889526,198.543182 330.202240,197.990585 
	C334.287720,197.467102 338.344879,196.717743 342.433411,196.224396 
	C346.160431,195.774673 349.912781,195.535202 352.833649,195.275879 
	C349.865509,205.319519 346.739014,214.495972 344.505920,223.884918 
	C342.606903,231.868973 348.095032,236.524323 355.811249,233.814346 
	C359.649170,232.466446 363.379761,230.555481 366.797699,228.341583 
	C370.219360,226.125275 372.081238,222.647217 370.662079,218.442780 
	C367.503113,209.083801 373.581970,202.319168 377.151978,194.882858 
	C377.506042,194.145294 379.448181,193.847046 380.634491,193.888092 
	C385.756744,194.065201 390.870514,194.588196 395.991058,194.644211 
	C397.194855,194.657379 398.763885,193.617065 399.566040,192.592529 
	C403.741058,187.260208 407.771240,181.811783 411.755188,176.333511 
	C414.700256,172.283752 417.497345,168.126373 420.836914,163.332962 
	C412.978027,161.953949 406.066437,160.741165 398.487457,159.411270 
	C399.368835,157.660416 399.983185,156.020767 400.937042,154.610779 
	C409.456482,142.016968 418.401947,129.690155 426.393524,116.772240 
	C429.091370,112.411293 429.787018,106.640167 430.606110,101.390022 
	C430.861084,99.755737 428.841034,96.610992 427.274384,96.148117 
	C425.424133,95.601471 422.866547,97.050102 420.755981,97.959488 
	C419.770538,98.384071 419.003845,99.494492 418.327118,100.430756 
	C406.894806,116.248276 395.597260,132.164719 384.015564,147.871750 
	C380.782074,152.257065 377.425873,157.443161 372.859344,159.707962 
	C368.130310,162.053329 361.862854,161.296738 355.111389,162.021057 
	C363.112762,152.358444 370.492889,143.902115 377.353271,135.043335 
	C385.534393,124.479156 392.439270,113.346886 390.071075,98.902794 
	C389.201080,93.596451 388.205139,88.232773 382.516815,86.572433 
	C377.214630,85.024811 371.513916,84.233017 365.986969,84.224785 
	C359.592224,84.215271 353.195679,85.425461 345.941010,86.238129 
M942.033936,213.473175 
	C944.458984,218.526169 945.641602,225.529114 949.656372,228.087311 
	C953.725342,230.680038 960.593201,228.885666 966.235535,228.996216 
	C966.895325,229.009140 967.557190,228.917068 968.686096,228.842957 
	C967.824219,226.692627 967.142029,224.696899 966.246094,222.802261 
	C959.181580,207.863068 952.129639,192.917389 944.938416,178.039169 
	C943.510376,175.084702 943.375244,172.948654 945.710754,170.168594 
	C950.915527,163.973282 955.624756,157.360565 960.509766,150.898224 
	C962.581177,148.158005 964.587097,145.368317 967.069214,141.994293 
	C959.750305,141.994293 953.578674,141.815384 947.430420,142.115875 
	C945.825928,142.194290 943.812927,143.396637 942.807068,144.710266 
	C936.023682,153.569473 929.460815,162.597488 921.873901,172.859467 
	C921.873901,150.652054 921.873901,129.980179 921.873901,109.338425 
	C915.347900,109.338425 909.443848,109.338425 903.390747,109.338425 
	C903.390747,149.267853 903.390747,188.852188 903.390747,228.617188 
	C909.673279,228.617188 915.697510,228.617188 921.965942,228.617188 
	C921.965942,223.077423 922.502319,217.855911 921.849121,212.787704 
	C920.656921,203.536591 924.109314,196.418243 931.020752,190.039154 
	C934.652649,197.605408 938.280701,205.163559 942.033936,213.473175 
M758.732544,229.010818 
	C771.575623,234.181564 781.776306,229.417023 791.078125,219.590652 
	C792.042419,223.113449 792.802124,225.888992 793.600647,228.806030 
	C799.540710,228.806030 805.333313,228.806030 810.801025,228.806030 
	C809.859314,222.194077 808.305481,215.593948 808.099731,208.952057 
	C807.656433,194.643143 808.042542,180.310760 807.833496,165.991714 
	C807.631958,152.192001 801.687988,143.273911 790.898071,141.245667 
	C785.094055,140.154678 778.991394,139.686325 773.115479,140.136795 
	C759.083069,141.212524 749.535950,149.900894 747.612671,165.488770 
	C751.134827,166.267944 754.629150,167.229965 758.187561,167.770523 
	C761.235901,168.233627 763.903198,168.711823 765.517334,164.284470 
	C768.577576,155.890594 781.757202,154.243744 787.617981,161.040970 
	C791.371643,165.394379 789.534912,172.445267 784.091980,174.113266 
	C779.376282,175.558395 774.548584,176.637238 769.831543,178.078339 
	C762.594299,180.289398 755.154785,182.119949 750.174194,188.649002 
	C741.297852,200.284912 743.703247,222.279053 758.732544,229.010818 
M1006.772949,231.005249 
	C1026.871948,232.460190 1037.441162,219.838791 1040.684570,204.285904 
	C1034.707275,203.377518 1028.751221,202.472366 1022.941162,201.589386 
	C1018.912415,211.790878 1013.872070,215.628876 1007.469299,213.789246 
	C999.359497,211.459137 993.949158,201.899261 995.488953,191.852203 
	C1010.763550,191.852203 1026.144531,191.852203 1041.799805,191.852203 
	C1042.378418,180.586761 1041.359619,170.293289 1037.178467,160.230179 
	C1031.684204,147.006882 1022.216919,140.210007 1008.464355,139.934418 
	C994.499451,139.654572 985.123413,148.678986 980.176025,160.317627 
	C975.437073,171.465744 974.549561,183.186066 975.965271,195.236237 
	C977.941223,212.055435 985.720337,228.743866 1006.772949,231.005249 
M621.542480,129.001205 
	C626.542236,129.001236 631.563843,129.290970 636.535339,128.915955 
	C641.078735,128.573242 642.113037,130.324417 642.088379,134.618759 
	C641.918457,164.283112 641.999084,193.948883 641.999146,223.614212 
	C641.999146,225.352997 641.999146,227.091766 641.999146,228.676300 
	C648.780457,228.676300 654.708374,228.676300 660.997620,228.676300 
	C660.997620,226.555847 660.997620,224.749115 660.997620,222.942398 
	C660.997620,193.777054 660.996216,164.611710 660.998657,135.446365 
	C660.999207,129.006805 661.005493,129.004318 667.642212,129.001862 
	C675.251953,128.999039 682.861694,129.001205 690.540405,129.001205 
	C690.540405,122.006538 690.540405,115.631195 690.540405,109.379295 
	C664.242859,109.379295 638.339233,109.379295 612.405029,109.379295 
	C612.405029,116.019814 612.405029,122.276253 612.405029,129.001205 
	C615.305420,129.001205 617.931763,129.001205 621.542480,129.001205 
M873.359192,169.176102 
	C878.519775,168.362228 883.680298,167.548370 888.655151,166.763794 
	C888.799866,165.852097 888.947266,165.507050 888.889954,165.200211 
	C886.367249,151.681549 875.357849,141.215973 862.416321,140.012695 
	C845.993286,138.485687 832.251282,146.605148 827.022156,160.618988 
	C822.179199,173.597961 821.359802,187.027740 824.323914,200.242859 
	C828.270874,217.840530 836.624023,231.961670 859.775024,231.098816 
	C875.530273,230.511597 889.452942,216.718643 889.605042,200.099915 
	C883.933716,199.180130 878.190186,198.248627 872.302795,197.293808 
	C871.519775,199.767990 870.829163,201.948883 870.139526,204.130081 
	C868.390991,209.660324 864.809204,213.228867 858.953003,213.945190 
	C853.777649,214.578232 848.175232,211.400757 845.972839,205.900131 
	C844.163147,201.380447 842.849854,196.485153 842.362122,191.650848 
	C841.430603,182.417709 841.305359,173.096878 845.806152,164.501038 
	C848.525513,159.307373 853.080627,156.808212 858.814514,157.082321 
	C864.492004,157.353745 868.254517,160.456604 870.064819,165.984299 
	C870.499939,167.312820 871.784241,168.363205 873.359192,169.176102 
M718.377014,165.112061 
	C724.370117,158.830002 726.627869,158.593475 735.869263,163.423889 
	C737.564758,157.708618 739.341553,152.063812 740.835815,146.345200 
	C741.086853,145.384415 740.458618,143.576279 739.655334,143.054459 
	C732.676514,138.520477 723.078979,138.356247 718.096436,146.006912 
	C716.648376,148.230469 715.212097,150.461777 713.770447,152.689514 
	C713.449646,152.556854 713.128906,152.424194 712.808105,152.291519 
	C712.808105,149.032806 712.808105,145.774078 712.808105,142.263916 
	C706.847412,142.263916 701.287231,142.263916 695.538086,142.263916 
	C695.538086,171.234467 695.538086,199.931396 695.538086,228.707428 
	C701.775330,228.707428 707.680786,228.707428 714.005432,228.707428 
	C714.005432,215.291595 713.539917,202.150085 714.180603,189.062744 
	C714.562561,181.261826 716.681580,173.545959 718.377014,165.112061 
M1098.797241,159.968658 
	C1099.907959,155.840027 1100.682007,151.578842 1102.239014,147.626007 
	C1103.419678,144.628174 1102.270386,143.339569 1100.003906,142.074020 
	C1092.366211,137.809509 1084.010864,139.751251 1079.088623,146.981186 
	C1077.846558,148.805557 1076.654297,150.663940 1074.804443,153.469330 
	C1074.804443,149.940659 1075.115723,147.572556 1074.682251,145.349716 
	C1074.440552,144.110672 1073.020142,142.224350 1072.027832,142.157288 
	C1067.135864,141.826584 1062.209473,142.006897 1057.317627,142.006897 
	C1057.317627,171.347610 1057.317627,199.911957 1057.317627,228.622650 
	C1063.598022,228.622650 1069.620972,228.622650 1075.925415,228.622650 
	C1075.925415,226.427826 1075.892212,224.614792 1075.930542,222.803284 
	C1076.264282,207.033325 1076.555298,191.262146 1076.977173,175.494476 
	C1077.187256,167.640945 1080.806274,161.570801 1086.729614,160.749344 
	C1090.170898,160.272095 1093.913086,161.964920 1097.729736,162.722931 
	C1097.837402,162.445206 1098.181885,161.555908 1098.797241,159.968658 
M465.985718,149.830765 
	C471.804840,146.942841 475.188904,142.022324 477.246765,136.087555 
	C478.873718,131.395432 477.642914,127.175156 474.144196,123.869896 
	C471.137665,121.029625 464.558655,120.474281 461.359833,123.417694 
	C457.575562,126.899834 453.916351,130.984650 451.678955,135.534103 
	C449.874451,139.203354 449.769592,144.223663 453.416412,147.574265 
	C456.698883,150.590179 460.672455,152.206268 465.985718,149.830765 
z"/>
<path fill="#3B89FC" opacity="1.000000" stroke="none" 
	d="
M261.743622,257.271973 
	C273.646210,266.235687 270.162750,282.792816 259.548340,287.765961 
	C254.125870,290.306549 245.370941,289.470825 240.957672,285.395813 
	C234.240616,279.193604 227.583359,272.919983 221.073349,266.501556 
	C209.801605,255.388412 198.533493,244.265045 187.552582,232.867767 
	C184.599625,229.802856 182.412720,229.785629 179.084213,231.893723 
	C161.688583,242.911209 142.590454,247.592545 122.064316,247.031357 
	C100.003517,246.428223 80.446861,238.799500 63.202259,225.487488 
	C43.788109,210.500687 31.328579,190.672745 26.619032,166.616592 
	C20.678675,136.273514 26.527813,108.309494 45.854141,83.643799 
	C61.462624,63.723106 81.736862,50.676666 106.479034,46.330654 
	C134.874496,41.342930 161.859558,46.293171 185.372284,64.077415 
	C192.990952,69.839928 199.699402,76.805832 207.948837,84.233963 
	C208.963211,82.859886 210.150772,80.556732 211.957870,78.950661 
	C215.511810,75.792084 217.391342,73.047043 215.320740,67.680931 
	C213.029037,61.741879 218.625290,52.636986 224.633682,50.217453 
	C232.794785,46.931046 241.881821,49.473064 245.756882,56.984093 
	C247.584854,60.527210 249.662888,61.161278 253.105728,61.055962 
	C259.892731,60.848351 266.690552,60.994781 273.740387,60.994781 
	C273.740387,63.710621 273.740387,65.983284 273.740387,69.005234 
	C266.738464,69.005234 259.643555,69.073456 252.551147,68.969833 
	C249.913162,68.931290 248.216156,69.308548 246.720016,72.115341 
	C242.137054,80.713081 234.934280,83.320160 225.511414,80.837013 
	C224.111694,80.468147 221.963394,80.866013 220.876007,81.769348 
	C217.428864,84.632965 214.320236,87.904083 211.234802,90.869568 
	C232.992172,129.128876 232.497879,166.505463 209.266434,203.697922 
	C226.579514,221.373276 244.036865,239.195938 261.743622,257.271973 
M209.993622,156.159775 
	C210.038559,151.830399 210.050308,147.500381 210.134583,143.171768 
	C210.407471,129.153061 206.198853,116.389595 199.299484,103.675667 
	C195.734558,107.327728 192.294189,110.487587 189.352554,114.058327 
	C188.285080,115.354095 187.674179,117.829262 188.105164,119.429604 
	C191.667557,132.657120 180.836182,144.022079 167.555206,140.462891 
	C164.383698,139.612961 162.657761,140.464569 160.633377,142.532227 
	C153.409576,149.910477 146.135590,157.243958 138.705002,164.412369 
	C136.791260,166.258575 136.173462,167.877045 137.076172,170.372437 
	C139.562363,177.245255 137.592224,183.221146 132.395706,187.878036 
	C127.153099,192.576233 120.778107,193.637787 114.415680,190.453033 
	C107.795731,187.139374 102.990036,181.009598 105.377808,174.024200 
	C108.177124,165.834808 103.171150,162.783432 98.996643,158.512497 
	C96.435677,155.892380 93.710098,153.422165 91.283424,150.685165 
	C89.309563,148.458893 87.552666,147.898895 84.420090,148.784149 
	C75.230209,151.381165 68.664528,148.174622 63.889030,139.688095 
	C63.309795,138.658707 62.250645,137.178909 61.374809,137.151352 
	C54.637226,136.939468 47.889980,137.034821 40.512997,137.034821 
	C41.041515,144.786346 41.175655,151.756485 42.048233,158.632935 
	C44.905895,181.153000 56.270309,199.135239 73.783394,212.797562 
	C93.706108,228.339737 116.646706,233.811371 141.687012,228.986694 
	C163.573212,224.769745 180.923264,213.316711 194.232315,195.552750 
	C202.820099,184.090408 207.458420,171.021515 209.993622,156.159775 
M53.458340,101.072968 
	C48.884945,109.786552 43.978130,118.376755 42.920349,128.994781 
	C47.760704,128.994781 52.254105,128.703918 56.690998,129.079880 
	C60.797405,129.427826 63.154671,128.268875 65.129829,124.371292 
	C68.568268,117.586189 77.489059,114.837524 84.833214,117.533150 
	C91.413681,119.948471 97.607918,128.357162 95.490936,134.132355 
	C92.984726,140.969330 95.503845,144.868195 100.283630,148.883774 
	C103.714783,151.766342 106.819763,155.073959 109.826607,158.411469 
	C111.732674,160.527161 113.475388,160.656082 116.223244,160.082352 
	C119.613083,159.374527 123.267555,160.021469 126.797401,159.859375 
	C128.524689,159.780075 130.783386,159.773453 131.854813,158.746338 
	C139.790573,151.138641 147.566666,143.357758 155.173889,135.421356 
	C156.289032,134.257950 156.975204,131.819702 156.623383,130.248138 
	C153.303192,115.417793 163.710724,105.107475 178.132523,109.057243 
	C179.316696,109.381569 181.150070,109.359161 181.967575,108.661247 
	C186.371994,104.901054 190.550690,100.876442 194.647079,97.091103 
	C162.436996,50.447353 89.244621,46.590378 53.458340,101.072968 
M176.175385,117.038818 
	C171.904892,114.705200 168.008591,116.055489 165.893997,119.708839 
	C164.501221,122.115097 164.317764,125.942886 165.094208,128.713364 
	C166.247314,132.827774 170.473969,133.958679 174.005066,132.760269 
	C176.586105,131.884293 179.263916,129.294601 180.452087,126.784180 
	C182.212784,123.064049 179.780945,119.895164 176.175385,117.038818 
M226.523254,58.824615 
	C222.171921,63.467594 221.799271,67.020294 225.261780,70.850372 
	C228.402603,74.324585 232.744110,74.913490 236.276917,72.344482 
	C240.091843,69.570297 241.222488,64.276649 238.802490,60.519772 
	C236.344070,56.703228 231.964905,55.861942 226.523254,58.824615 
M71.258583,136.720871 
	C74.273026,141.559891 78.413567,142.826477 83.270561,140.395340 
	C86.824371,138.616501 88.493332,133.800903 86.925934,129.848221 
	C85.331581,125.827583 80.581451,123.532028 76.380241,125.061409 
	C71.258728,126.925804 70.249344,131.033020 71.258583,136.720871 
M128.123993,170.519516 
	C123.441582,166.146286 120.034332,165.646057 116.486572,168.811020 
	C112.713409,172.177048 111.776489,176.539932 114.137405,179.750244 
	C117.163597,183.865173 121.603836,185.129776 125.341339,182.941177 
	C129.748627,180.360382 130.888123,176.280823 128.123993,170.519516 
z"/>
<path fill="#3C89FC" opacity="1.000000" stroke="none" 
	d="
M545.335205,192.051422 
	C549.141541,177.966721 559.174011,168.669296 570.078796,160.114685 
	C578.803772,153.270111 588.332886,148.132370 599.809509,148.105042 
	C609.750183,148.081375 615.106934,155.573105 612.392456,165.115768 
	C609.166870,176.455154 600.978882,183.432449 591.429260,189.086182 
	C585.064209,192.854538 578.452637,196.248047 571.760254,199.403870 
	C568.506348,200.938248 566.708130,203.273956 568.211365,206.194061 
	C569.449097,208.598465 572.213135,211.398636 574.655273,211.785446 
	C582.779846,213.072342 589.270264,208.469727 595.447754,204.002075 
	C601.588745,199.560837 607.398438,194.661407 613.591125,189.775330 
	C614.779114,197.720917 614.775146,205.010406 607.761353,210.731628 
	C600.080200,216.997253 593.318665,224.609833 585.028687,229.852219 
	C575.351624,235.971817 563.916077,238.699432 553.969910,230.565445 
	C549.050598,226.542435 546.328918,219.832123 542.318420,213.902237 
	C539.980957,216.301666 536.849182,219.827072 533.382751,222.985153 
	C530.093201,225.982101 526.727417,229.066711 522.912354,231.280960 
	C514.014160,236.445450 503.935699,234.030411 497.998138,225.610245 
	C494.694397,220.925110 491.713318,216.012451 488.280090,210.730423 
	C484.866272,215.025116 481.320099,218.957047 478.404541,223.311249 
	C475.777649,227.234390 472.874237,230.020874 467.875183,228.938721 
	C463.329315,227.954636 463.501282,223.653580 462.364136,220.358978 
	C461.953217,219.168427 461.933960,217.842697 461.740936,216.610046 
	C456.703888,220.686401 451.982819,225.097702 446.695190,228.670547 
	C433.265594,237.744873 421.365479,233.242996 416.035645,217.927200 
	C409.917267,200.345444 414.101074,185.000839 425.516510,171.225525 
	C429.910614,165.922989 435.050537,161.203033 440.114990,156.502426 
	C444.354706,152.567307 449.838776,152.574112 455.161133,153.127594 
	C459.531555,153.582077 462.658661,158.941010 460.406158,163.512177 
	C456.867676,170.693161 452.582825,177.573349 447.983734,184.139404 
	C445.251495,188.040146 441.139832,190.945053 437.968689,194.577332 
	C435.417633,197.499390 432.390625,200.815765 435.563080,204.973831 
	C438.553589,208.893311 442.782318,209.084061 446.722076,206.743378 
	C452.107605,203.543747 457.186584,199.828156 462.707581,196.616333 
	C462.586639,202.664230 462.155151,208.429520 461.644012,215.258453 
	C471.356171,207.114639 473.603149,199.600037 469.967896,190.359924 
	C468.052887,191.588898 466.143402,192.814301 464.233917,194.039734 
	C467.738312,185.364319 470.266724,176.118530 474.938171,168.125183 
	C486.829803,147.777466 501.616577,129.448029 517.536438,112.102852 
	C522.988953,106.162193 529.006226,100.654175 535.294434,95.607468 
	C537.903015,93.513916 541.838318,92.432663 545.274414,92.147934 
	C551.885681,91.600098 555.213074,95.900429 552.317261,101.871986 
	C549.041931,108.626167 544.849854,115.075691 540.223999,121.008690 
	C526.699097,138.355377 512.753723,155.374100 499.001373,172.543976 
	C498.304565,173.413971 497.872437,174.495941 497.981934,176.309845 
	C499.068939,175.616470 500.231140,175.016891 501.231171,174.215042 
	C509.969391,167.208725 518.611450,160.079819 527.450195,153.203537 
	C529.338562,151.734406 531.823059,150.783493 534.182556,150.212891 
	C542.354858,148.236694 547.301025,152.947357 548.034973,162.376984 
	C549.085693,175.875763 541.974670,184.986740 532.274536,192.701248 
	C527.507935,196.492096 522.296021,199.719452 517.345947,203.285568 
	C516.047546,204.220978 514.974426,205.469177 513.845398,206.529190 
	C517.530518,211.774506 520.507874,213.045639 525.221008,209.843918 
	C531.617126,205.498886 537.367859,200.203674 543.696655,195.593201 
	C543.600098,200.772278 543.202271,205.674179 542.724915,211.555573 
	C551.668396,205.420700 552.864685,201.562546 550.287842,190.439713 
	C548.631287,190.978790 546.983276,191.515106 545.335205,192.051422 
M503.374695,196.156967 
	C504.985168,195.883545 507.112183,196.170227 508.118713,195.241943 
	C513.075012,190.671173 517.853821,185.888992 522.434021,180.939606 
	C524.070435,179.171234 524.972412,176.723129 526.940857,173.321655 
	C524.416870,174.398209 523.236145,174.617966 522.434387,175.289932 
	C517.256470,179.629547 511.976562,183.876877 507.128357,188.566177 
	C505.138306,190.490997 504.137756,193.438812 503.374695,196.156967 
M588.968262,171.385971 
	C589.638306,170.083023 590.308289,168.780090 590.978271,167.477142 
	C582.432983,171.019180 576.393982,176.806091 571.381348,184.921005 
	C577.225891,183.474365 581.326172,180.256653 588.968262,171.385971 
M493.183990,179.572342 
	C493.425049,179.873505 493.666077,180.174667 493.907135,180.475815 
	C493.865601,180.043961 493.824036,179.612091 493.183990,179.572342 
z"/>
<path fill="#3B89FC" opacity="1.000000" stroke="none" 
	d="
M346.370453,86.172119 
	C353.195679,85.425461 359.592224,84.215271 365.986969,84.224785 
	C371.513916,84.233017 377.214630,85.024811 382.516815,86.572433 
	C388.205139,88.232773 389.201080,93.596451 390.071075,98.902794 
	C392.439270,113.346886 385.534393,124.479156 377.353271,135.043335 
	C370.492889,143.902115 363.112762,152.358444 355.111389,162.021057 
	C361.862854,161.296738 368.130310,162.053329 372.859344,159.707962 
	C377.425873,157.443161 380.782074,152.257065 384.015564,147.871750 
	C395.597260,132.164719 406.894806,116.248276 418.327118,100.430756 
	C419.003845,99.494492 419.770538,98.384071 420.755981,97.959488 
	C422.866547,97.050102 425.424133,95.601471 427.274384,96.148117 
	C428.841034,96.610992 430.861084,99.755737 430.606110,101.390022 
	C429.787018,106.640167 429.091370,112.411293 426.393524,116.772240 
	C418.401947,129.690155 409.456482,142.016968 400.937042,154.610779 
	C399.983185,156.020767 399.368835,157.660416 398.487457,159.411270 
	C406.066437,160.741165 412.978027,161.953949 420.836914,163.332962 
	C417.497345,168.126373 414.700256,172.283752 411.755188,176.333511 
	C407.771240,181.811783 403.741058,187.260208 399.566040,192.592529 
	C398.763885,193.617065 397.194855,194.657379 395.991058,194.644211 
	C390.870514,194.588196 385.756744,194.065201 380.634491,193.888092 
	C379.448181,193.847046 377.506042,194.145294 377.151978,194.882858 
	C373.581970,202.319168 367.503113,209.083801 370.662079,218.442780 
	C372.081238,222.647217 370.219360,226.125275 366.797699,228.341583 
	C363.379761,230.555481 359.649170,232.466446 355.811249,233.814346 
	C348.095032,236.524323 342.606903,231.868973 344.505920,223.884918 
	C346.739014,214.495972 349.865509,205.319519 352.833649,195.275879 
	C349.912781,195.535202 346.160431,195.774673 342.433411,196.224396 
	C338.344879,196.717743 334.287720,197.467102 330.202240,197.990585 
	C325.889526,198.543182 322.191650,199.424667 319.510803,203.729355 
	C314.018829,212.548019 307.688690,220.839859 302.001923,229.543488 
	C297.001160,237.197189 293.520325,237.166626 289.045135,235.124390 
	C283.196320,232.455338 281.580597,225.943863 285.080780,219.379913 
	C287.936951,214.023712 291.635468,209.116669 295.486359,203.202972 
	C293.548889,202.743301 292.005219,202.164062 290.425629,202.038986 
	C283.388031,201.481766 279.863708,197.796555 279.996277,190.943954 
	C280.207306,180.032745 288.114319,173.524063 299.376740,173.769760 
	C304.162598,173.874161 308.945312,171.321976 313.819366,170.767685 
	C324.156494,169.592087 330.359192,162.965286 336.378326,155.441879 
	C345.168488,144.454803 354.468170,133.876282 363.478210,123.063232 
	C365.055969,121.169739 366.620026,119.123459 367.561584,116.883446 
	C368.400055,114.888672 369.398895,111.693764 368.462708,110.535950 
	C367.245575,109.030731 363.925690,108.014168 361.960266,108.523064 
	C349.571106,111.730957 337.207031,115.113434 325.037476,119.063118 
	C317.542053,121.495796 310.406342,125.036880 302.931549,128.154373 
	C306.925110,132.153534 307.110077,134.165573 302.897034,136.471313 
	C292.911194,141.936462 282.860870,147.373047 272.452057,151.945755 
	C265.099670,155.175751 259.277985,151.137619 259.301483,143.123322 
	C259.344238,128.580460 264.609802,117.046417 278.601196,110.162651 
	C299.408142,99.925613 320.824799,91.648453 343.588562,87.020813 
	C344.392517,86.857376 345.157745,86.503334 346.370453,86.172119 
z"/>
<path fill="#888686" opacity="1.000000" stroke="none" 
	d="
M941.971313,213.097443 
	C938.280701,205.163559 934.652649,197.605408 931.020752,190.039154 
	C924.109314,196.418243 920.656921,203.536591 921.849121,212.787704 
	C922.502319,217.855911 921.965942,223.077423 921.965942,228.617188 
	C915.697510,228.617188 909.673279,228.617188 903.390747,228.617188 
	C903.390747,188.852188 903.390747,149.267853 903.390747,109.338425 
	C909.443848,109.338425 915.347900,109.338425 921.873901,109.338425 
	C921.873901,129.980179 921.873901,150.652054 921.873901,172.859467 
	C929.460815,162.597488 936.023682,153.569473 942.807068,144.710266 
	C943.812927,143.396637 945.825928,142.194290 947.430420,142.115875 
	C953.578674,141.815384 959.750305,141.994293 967.069214,141.994293 
	C964.587097,145.368317 962.581177,148.158005 960.509766,150.898224 
	C955.624756,157.360565 950.915527,163.973282 945.710754,170.168594 
	C943.375244,172.948654 943.510376,175.084702 944.938416,178.039169 
	C952.129639,192.917389 959.181580,207.863068 966.246094,222.802261 
	C967.142029,224.696899 967.824219,226.692627 968.686096,228.842957 
	C967.557190,228.917068 966.895325,229.009140 966.235535,228.996216 
	C960.593201,228.885666 953.725342,230.680038 949.656372,228.087311 
	C945.641602,225.529114 944.458984,218.526169 941.971313,213.097443 
z"/>
<path fill="#878687" opacity="1.000000" stroke="none" 
	d="
M758.351685,228.936157 
	C743.703247,222.279053 741.297852,200.284912 750.174194,188.649002 
	C755.154785,182.119949 762.594299,180.289398 769.831543,178.078339 
	C774.548584,176.637238 779.376282,175.558395 784.091980,174.113266 
	C789.534912,172.445267 791.371643,165.394379 787.617981,161.040970 
	C781.757202,154.243744 768.577576,155.890594 765.517334,164.284470 
	C763.903198,168.711823 761.235901,168.233627 758.187561,167.770523 
	C754.629150,167.229965 751.134827,166.267944 747.612976,165.487488 
	C749.535950,149.900894 759.083069,141.212524 773.115479,140.136795 
	C778.991394,139.686325 785.094055,140.154678 790.898071,141.245667 
	C801.687988,143.273911 807.631958,152.192001 807.833496,165.991714 
	C808.042542,180.310760 807.656433,194.643143 808.099731,208.952057 
	C808.305481,215.593948 809.859314,222.194077 810.801025,228.806030 
	C805.333313,228.806030 799.540710,228.806030 793.600647,228.806030 
	C792.802124,225.888992 792.042419,223.113449 791.078125,219.590652 
	C781.776306,229.417023 771.575623,234.181564 758.351685,228.936157 
M764.023499,200.129944 
	C764.803894,203.733017 764.571472,208.075241 766.558411,210.797821 
	C772.086609,218.373047 784.977600,215.069550 787.951233,205.152664 
	C789.538574,199.858963 789.214111,193.991989 789.839355,187.479034 
	C783.086792,189.508514 777.302490,190.784241 771.932800,193.044891 
	C768.997375,194.280746 766.763428,197.182724 764.023499,200.129944 
z"/>
<path fill="#878687" opacity="1.000000" stroke="none" 
	d="
M1006.318420,231.003052 
	C985.720337,228.743866 977.941223,212.055435 975.965271,195.236237 
	C974.549561,183.186066 975.437073,171.465744 980.176025,160.317627 
	C985.123413,148.678986 994.499451,139.654572 1008.464355,139.934418 
	C1022.216919,140.210007 1031.684204,147.006882 1037.178467,160.230179 
	C1041.359619,170.293289 1042.378418,180.586761 1041.799805,191.852203 
	C1026.144531,191.852203 1010.763550,191.852203 995.488953,191.852203 
	C993.949158,201.899261 999.359497,211.459137 1007.469299,213.789246 
	C1013.872070,215.628876 1018.912415,211.790878 1022.941162,201.589386 
	C1028.751221,202.472366 1034.707275,203.377518 1040.684570,204.285904 
	C1037.441162,219.838791 1026.871948,232.460190 1006.318420,231.003052 
M1004.864563,158.000061 
	C997.526917,161.969467 994.038147,168.981522 995.630249,176.856659 
	C1004.824097,176.856659 1014.061951,176.856659 1023.365356,176.856659 
	C1023.241638,174.812866 1023.258179,172.870636 1022.986450,170.969604 
	C1021.538208,160.836517 1012.516174,154.666977 1004.864563,158.000061 
z"/>
<path fill="#858585" opacity="1.000000" stroke="none" 
	d="
M621.050293,129.001205 
	C617.931763,129.001205 615.305420,129.001205 612.405029,129.001205 
	C612.405029,122.276253 612.405029,116.019814 612.405029,109.379295 
	C638.339233,109.379295 664.242859,109.379295 690.540405,109.379295 
	C690.540405,115.631195 690.540405,122.006538 690.540405,129.001205 
	C682.861694,129.001205 675.251953,128.999039 667.642212,129.001862 
	C661.005493,129.004318 660.999207,129.006805 660.998657,135.446365 
	C660.996216,164.611710 660.997620,193.777054 660.997620,222.942398 
	C660.997620,224.749115 660.997620,226.555847 660.997620,228.676300 
	C654.708374,228.676300 648.780457,228.676300 641.999146,228.676300 
	C641.999146,227.091766 641.999146,225.352997 641.999146,223.614212 
	C641.999084,193.948883 641.918457,164.283112 642.088379,134.618759 
	C642.113037,130.324417 641.078735,128.573242 636.535339,128.915955 
	C631.563843,129.290970 626.542236,129.001236 621.050293,129.001205 
z"/>
<path fill="#878687" opacity="1.000000" stroke="none" 
	d="
M873.018555,169.358795 
	C871.784241,168.363205 870.499939,167.312820 870.064819,165.984299 
	C868.254517,160.456604 864.492004,157.353745 858.814514,157.082321 
	C853.080627,156.808212 848.525513,159.307373 845.806152,164.501038 
	C841.305359,173.096878 841.430603,182.417709 842.362122,191.650848 
	C842.849854,196.485153 844.163147,201.380447 845.972839,205.900131 
	C848.175232,211.400757 853.777649,214.578232 858.953003,213.945190 
	C864.809204,213.228867 868.390991,209.660324 870.139526,204.130081 
	C870.829163,201.948883 871.519775,199.767990 872.302795,197.293808 
	C878.190186,198.248627 883.933716,199.180130 889.605042,200.099915 
	C889.452942,216.718643 875.530273,230.511597 859.775024,231.098816 
	C836.624023,231.961670 828.270874,217.840530 824.323914,200.242859 
	C821.359802,187.027740 822.179199,173.597961 827.022156,160.618988 
	C832.251282,146.605148 845.993286,138.485687 862.416321,140.012695 
	C875.357849,141.215973 886.367249,151.681549 888.889954,165.200211 
	C888.947266,165.507050 888.799866,165.852097 888.655151,166.763794 
	C883.680298,167.548370 878.519775,168.362228 873.018555,169.358795 
z"/>
<path fill="#888787" opacity="1.000000" stroke="none" 
	d="
M718.198364,165.451965 
	C716.681580,173.545959 714.562561,181.261826 714.180603,189.062744 
	C713.539917,202.150085 714.005432,215.291595 714.005432,228.707428 
	C707.680786,228.707428 701.775330,228.707428 695.538086,228.707428 
	C695.538086,199.931396 695.538086,171.234467 695.538086,142.263916 
	C701.287231,142.263916 706.847412,142.263916 712.808105,142.263916 
	C712.808105,145.774078 712.808105,149.032806 712.808105,152.291519 
	C713.128906,152.424194 713.449646,152.556854 713.770447,152.689514 
	C715.212097,150.461777 716.648376,148.230469 718.096436,146.006912 
	C723.078979,138.356247 732.676514,138.520477 739.655334,143.054459 
	C740.458618,143.576279 741.086853,145.384415 740.835815,146.345200 
	C739.341553,152.063812 737.564758,157.708618 735.869263,163.423889 
	C726.627869,158.593475 724.370117,158.830002 718.198364,165.451965 
z"/>
<path fill="#878687" opacity="1.000000" stroke="none" 
	d="
M1098.661865,160.317627 
	C1098.181885,161.555908 1097.837402,162.445206 1097.729736,162.722931 
	C1093.913086,161.964920 1090.170898,160.272095 1086.729614,160.749344 
	C1080.806274,161.570801 1077.187256,167.640945 1076.977173,175.494476 
	C1076.555298,191.262146 1076.264282,207.033325 1075.930542,222.803284 
	C1075.892212,224.614792 1075.925415,226.427826 1075.925415,228.622650 
	C1069.620972,228.622650 1063.598022,228.622650 1057.317627,228.622650 
	C1057.317627,199.911957 1057.317627,171.347610 1057.317627,142.006897 
	C1062.209473,142.006897 1067.135864,141.826584 1072.027832,142.157288 
	C1073.020142,142.224350 1074.440552,144.110672 1074.682251,145.349716 
	C1075.115723,147.572556 1074.804443,149.940659 1074.804443,153.469330 
	C1076.654297,150.663940 1077.846558,148.805557 1079.088623,146.981186 
	C1084.010864,139.751251 1092.366211,137.809509 1100.003906,142.074020 
	C1102.270386,143.339569 1103.419678,144.628174 1102.239014,147.626007 
	C1100.682007,151.578842 1099.907959,155.840027 1098.661865,160.317627 
z"/>
<path fill="#3E89FC" opacity="1.000000" stroke="none" 
	d="
M465.602966,149.906219 
	C460.672455,152.206268 456.698883,150.590179 453.416412,147.574265 
	C449.769592,144.223663 449.874451,139.203354 451.678955,135.534103 
	C453.916351,130.984650 457.575562,126.899834 461.359833,123.417694 
	C464.558655,120.474281 471.137665,121.029625 474.144196,123.869896 
	C477.642914,127.175156 478.873718,131.395432 477.246765,136.087555 
	C475.188904,142.022324 471.804840,146.942841 465.602966,149.906219 
z"/>
<path fill="#1773FC" opacity="1.000000" stroke="none" 
	d="
M464.104492,194.307007 
	C466.143402,192.814301 468.052887,191.588898 469.967896,190.359924 
	C473.603149,199.600037 471.356171,207.114639 461.644012,215.258453 
	C462.155151,208.429520 462.586639,202.664230 463.008148,196.468079 
	C463.323792,195.549591 463.649445,195.061951 464.104492,194.307007 
z"/>
<path fill="#1973FC" opacity="1.000000" stroke="none" 
	d="
M545.189819,192.346130 
	C546.983276,191.515106 548.631287,190.978790 550.287842,190.439713 
	C552.864685,201.562546 551.668396,205.420700 542.724915,211.555573 
	C543.202271,205.674179 543.600098,200.772278 543.995789,195.450943 
	C544.343933,194.234604 544.694214,193.437714 545.189819,192.346130 
z"/>
<path fill="#FFFFFF00" opacity="1.000000" stroke="none" 
	d="
M209.989960,156.621414 
	C207.458420,171.021515 202.820099,184.090408 194.232315,195.552750 
	C180.923264,213.316711 163.573212,224.769745 141.687012,228.986694 
	C116.646706,233.811371 93.706108,228.339737 73.783394,212.797562 
	C56.270309,199.135239 44.905895,181.153000 42.048233,158.632935 
	C41.175655,151.756485 41.041515,144.786346 40.512997,137.034821 
	C47.889980,137.034821 54.637226,136.939468 61.374809,137.151352 
	C62.250645,137.178909 63.309795,138.658707 63.889030,139.688095 
	C68.664528,148.174622 75.230209,151.381165 84.420090,148.784149 
	C87.552666,147.898895 89.309563,148.458893 91.283424,150.685165 
	C93.710098,153.422165 96.435677,155.892380 98.996643,158.512497 
	C103.171150,162.783432 108.177124,165.834808 105.377808,174.024200 
	C102.990036,181.009598 107.795731,187.139374 114.415680,190.453033 
	C120.778107,193.637787 127.153099,192.576233 132.395706,187.878036 
	C137.592224,183.221146 139.562363,177.245255 137.076172,170.372437 
	C136.173462,167.877045 136.791260,166.258575 138.705002,164.412369 
	C146.135590,157.243958 153.409576,149.910477 160.633377,142.532227 
	C162.657761,140.464569 164.383698,139.612961 167.555206,140.462891 
	C180.836182,144.022079 191.667557,132.657120 188.105164,119.429604 
	C187.674179,117.829262 188.285080,115.354095 189.352554,114.058327 
	C192.294189,110.487587 195.734558,107.327728 199.299484,103.675667 
	C206.198853,116.389595 210.407471,129.153061 210.134583,143.171768 
	C210.050308,147.500381 210.038559,151.830399 209.989960,156.621414 
z"/>
<path fill="#FFFFFF00" opacity="1.000000" stroke="none" 
	d="
M53.710655,100.805641 
	C89.244621,46.590378 162.436996,50.447353 194.647079,97.091103 
	C190.550690,100.876442 186.371994,104.901054 181.967575,108.661247 
	C181.150070,109.359161 179.316696,109.381569 178.132523,109.057243 
	C163.710724,105.107475 153.303192,115.417793 156.623383,130.248138 
	C156.975204,131.819702 156.289032,134.257950 155.173889,135.421356 
	C147.566666,143.357758 139.790573,151.138641 131.854813,158.746338 
	C130.783386,159.773453 128.524689,159.780075 126.797401,159.859375 
	C123.267555,160.021469 119.613083,159.374527 116.223244,160.082352 
	C113.475388,160.656082 111.732674,160.527161 109.826607,158.411469 
	C106.819763,155.073959 103.714783,151.766342 100.283630,148.883774 
	C95.503845,144.868195 92.984726,140.969330 95.490936,134.132355 
	C97.607918,128.357162 91.413681,119.948471 84.833214,117.533150 
	C77.489059,114.837524 68.568268,117.586189 65.129829,124.371292 
	C63.154671,128.268875 60.797405,129.427826 56.690998,129.079880 
	C52.254105,128.703918 47.760704,128.994781 42.920349,128.994781 
	C43.978130,118.376755 48.884945,109.786552 53.710655,100.805641 
z"/>
<path fill="#FFFFFF00" opacity="1.000000" stroke="none" 
	d="
M176.523560,117.214951 
	C179.780945,119.895164 182.212784,123.064049 180.452087,126.784180 
	C179.263916,129.294601 176.586105,131.884293 174.005066,132.760269 
	C170.473969,133.958679 166.247314,132.827774 165.094208,128.713364 
	C164.317764,125.942886 164.501221,122.115097 165.893997,119.708839 
	C168.008591,116.055489 171.904892,114.705200 176.523560,117.214951 
z"/>
<path fill="#FFFFFF00" opacity="1.000000" stroke="none" 
	d="
M226.810486,58.547882 
	C231.964905,55.861942 236.344070,56.703228 238.802490,60.519772 
	C241.222488,64.276649 240.091843,69.570297 236.276917,72.344482 
	C232.744110,74.913490 228.402603,74.324585 225.261780,70.850372 
	C221.799271,67.020294 222.171921,63.467594 226.810486,58.547882 
z"/>
<path fill="#FFFFFF00" opacity="1.000000" stroke="none" 
	d="
M71.150558,136.320328 
	C70.249344,131.033020 71.258728,126.925804 76.380241,125.061409 
	C80.581451,123.532028 85.331581,125.827583 86.925934,129.848221 
	C88.493332,133.800903 86.824371,138.616501 83.270561,140.395340 
	C78.413567,142.826477 74.273026,141.559891 71.150558,136.320328 
z"/>
<path fill="#FFFFFF00" opacity="1.000000" stroke="none" 
	d="
M128.386414,170.809814 
	C130.888123,176.280823 129.748627,180.360382 125.341339,182.941177 
	C121.603836,185.129776 117.163597,183.865173 114.137405,179.750244 
	C111.776489,176.539932 112.713409,172.177048 116.486572,168.811020 
	C120.034332,165.646057 123.441582,166.146286 128.386414,170.809814 
z"/>
<path fill="#FFFFFF00" opacity="1.000000" stroke="none" 
	d="
M503.030884,196.039124 
	C504.137756,193.438812 505.138306,190.490997 507.128357,188.566177 
	C511.976562,183.876877 517.256470,179.629547 522.434387,175.289932 
	C523.236145,174.617966 524.416870,174.398209 526.940857,173.321655 
	C524.972412,176.723129 524.070435,179.171234 522.434021,180.939606 
	C517.853821,185.888992 513.075012,190.671173 508.118713,195.241943 
	C507.112183,196.170227 504.985168,195.883545 503.030884,196.039124 
z"/>
<path fill="#FFFFFF00" opacity="1.000000" stroke="none" 
	d="
M588.758362,171.685196 
	C581.326172,180.256653 577.225891,183.474365 571.381348,184.921005 
	C576.393982,176.806091 582.432983,171.019180 590.978271,167.477142 
	C590.308289,168.780090 589.638306,170.083023 588.758362,171.685196 
z"/>
<path fill="#FFFFFF00" opacity="1.000000" stroke="none" 
	d="
M493.483246,179.376282 
	C493.824036,179.612091 493.865601,180.043961 493.907104,180.475830 
	C493.666077,180.174667 493.425049,179.873505 493.483246,179.376282 
z"/>
<path fill="#FFFFFF00" opacity="1.000000" stroke="none" 
	d="
M764.118286,199.731644 
	C766.763428,197.182724 768.997375,194.280746 771.932800,193.044891 
	C777.302490,190.784241 783.086792,189.508514 789.839355,187.479034 
	C789.214111,193.991989 789.538574,199.858963 787.951233,205.152664 
	C784.977600,215.069550 772.086609,218.373047 766.558411,210.797821 
	C764.571472,208.075241 764.803894,203.733017 764.118286,199.731644 
z"/>
<path fill="#FFFFFF00" opacity="1.000000" stroke="none" 
	d="
M1005.238770,157.879395 
	C1012.516174,154.666977 1021.538208,160.836517 1022.986450,170.969604 
	C1023.258179,172.870636 1023.241638,174.812866 1023.365356,176.856659 
	C1014.061951,176.856659 1004.824097,176.856659 995.630249,176.856659 
	C994.038147,168.981522 997.526917,161.969467 1005.238770,157.879395 
z"/>
</svg>